<?xml version="1.0" standalone="no"?>
<!DOCTYPE svg PUBLIC "-//W3C//DTD SVG 20010904//EN"
 "http://www.w3.org/TR/2001/REC-SVG-20010904/DTD/svg10.dtd">
<svg version="1.0" xmlns="http://www.w3.org/2000/svg"
 width="808.000000pt" height="522.000000pt" viewBox="0 0 808.000000 522.000000"
 preserveAspectRatio="xMidYMid meet">

<g transform="translate(0.000000,522.000000) scale(0.100000,-0.100000)"
fill="#000000" stroke="none">
<path d="M0 2610 l0 -2610 4040 0 4040 0 0 2610 0 2610 -4040 0 -4040 0 0
-2610z m4370 1085 c161 -35 209 -85 125 -132 -81 -44 -189 -58 -450 -58 -194
0 -256 3 -325 18 -152 33 -209 84 -139 126 37 23 137 49 235 61 109 14 466 4
554 -15z m-628 -222 c66 -14 127 -18 303 -18 230 0 309 10 441 55 l55 19 -3
-137 -3 -137 -60 -22 c-116 -42 -237 -58 -430 -58 -193 0 -314 16 -430 58
l-60 22 -3 137 -3 137 55 -19 c30 -10 92 -27 138 -37z m798 -393 l0 -139 -82
-26 c-234 -74 -592 -74 -826 0 l-82 26 0 136 0 135 23 -6 c216 -64 400 -84
603 -67 125 11 302 47 341 70 10 6 19 11 21 11 1 0 2 -63 2 -140z m-873 -215
c214 -60 539 -61 756 -1 45 13 90 27 100 31 16 7 17 -2 15 -136 l-3 -143 -33
-22 c-80 -54 -363 -85 -599 -66 -170 13 -268 34 -315 66 l-33 22 -3 143 c-2
134 -1 143 15 136 10 -4 55 -18 100 -30z m-879 -640 c29 -9 52 -20 52 -24 0
-5 -7 -25 -16 -46 -13 -31 -19 -36 -37 -30 -54 17 -124 17 -156 0 -82 -42 -82
-222 -1 -265 23 -12 143 -10 171 4 13 6 20 -1 29 -29 6 -20 10 -42 7 -49 -12
-31 -171 -47 -238 -24 -90 31 -140 110 -141 225 -1 187 146 292 330 238z
m-921 -23 c81 -42 119 -122 111 -233 -12 -156 -131 -233 -333 -214 l-75 7 0
228 c0 173 3 230 13 234 6 3 64 4 127 3 96 -2 122 -6 157 -25z m521 -19 l3
-42 -108 -3 -108 -3 -3 -42 -3 -43 95 0 96 0 0 -45 0 -45 -95 0 -95 0 0 -55 0
-55 115 0 115 0 0 -45 0 -45 -165 0 -165 0 0 235 0 236 158 -3 157 -3 3 -42z
m842 2 l0 -45 -105 0 -105 0 0 -45 0 -45 95 0 95 0 0 -45 0 -45 -95 0 -95 0 0
-55 0 -55 115 0 115 0 0 -45 0 -45 -170 0 -170 0 0 235 0 235 160 0 160 0 0
-45z m207 13 c17 -18 65 -79 107 -136 l76 -103 0 135 0 136 55 0 55 0 0 -235
0 -235 -47 0 -48 0 -72 113 c-39 61 -85 128 -102 147 l-30 35 -1 -147 0 -148
-55 0 -55 0 0 235 0 235 43 0 c36 0 48 -6 74 -32z m743 -18 l0 -50 -70 0 -70
0 0 -185 0 -185 -55 0 -55 0 0 185 0 185 -70 0 -70 0 0 50 0 50 195 0 195 0 0
-50z m348 27 c44 -24 72 -72 72 -125 0 -52 -12 -79 -52 -112 l-29 -26 19 -25
c11 -13 37 -55 57 -92 l37 -67 -60 0 -61 0 -37 63 c-60 99 -67 106 -96 107
l-28 0 0 -85 0 -85 -50 0 -50 0 0 229 c0 174 3 231 13 235 6 3 62 4 122 3 82
-2 118 -7 143 -20z m452 -72 c42 -98 140 -353 140 -368 0 -4 -26 -7 -57 -5
l-57 3 -15 48 -15 47 -91 0 -91 0 -15 -47 -15 -48 -57 -3 c-31 -2 -57 -1 -57
3 0 25 162 428 182 453 6 6 32 12 58 12 l48 0 42 -95z m310 -95 l0 -190 105 0
105 0 0 -45 0 -45 -160 0 -160 0 0 235 0 235 55 0 55 0 0 -190z m380 -45 l0
-235 -55 0 -55 0 0 235 0 235 55 0 55 0 0 -235z m440 200 c0 -29 -12 -50 -64
-113 -35 -42 -86 -111 -114 -152 l-51 -75 119 -3 120 -3 0 -44 0 -45 -190 0
-190 0 0 29 c0 31 83 165 171 278 27 35 49 65 49 68 0 3 -45 5 -100 5 l-100 0
0 45 0 45 175 0 175 0 0 -35z m400 -10 l0 -45 -105 0 -105 0 0 -45 0 -45 90 0
90 0 0 -45 0 -45 -90 0 -90 0 0 -55 0 -55 110 0 110 0 0 -45 0 -45 -165 0
-165 0 0 235 0 235 160 0 160 0 0 -45z m-4828 -573 c26 -11 7 -30 -32 -34 -30
-3 -35 -7 -38 -31 -5 -38 15 -60 50 -55 16 3 29 -1 32 -8 7 -18 -4 -24 -46
-24 -48 0 -78 28 -78 73 0 62 56 101 112 79z m261 -3 c76 -34 53 -149 -28
-149 -100 0 -102 148 -3 159 4 1 18 -4 31 -10z m342 -20 c12 -12 19 -32 19
-55 0 -49 -31 -74 -90 -74 l-44 0 0 74 c0 63 3 75 18 79 28 8 76 -4 97 -24z
m179 25 c28 -11 18 -34 -14 -34 -40 0 -38 -13 5 -33 25 -12 35 -23 35 -40 0
-34 -19 -47 -68 -47 -36 0 -43 3 -40 18 2 13 11 16 36 14 42 -5 41 11 -3 37
-41 24 -46 53 -13 75 24 17 38 19 62 10z m290 -5 c28 -13 50 -66 40 -95 -14
-37 -36 -54 -74 -54 -43 0 -67 21 -76 68 -5 26 -1 36 24 62 33 33 48 36 86 19z
m174 -11 c15 -13 16 -50 2 -64 -8 -8 -7 -19 1 -37 15 -33 25 -34 34 -4 4 12
16 43 27 70 28 65 52 64 82 -5 38 -87 40 -98 18 -98 -11 0 -22 7 -26 15 -3 9
-18 15 -36 15 -20 0 -30 -5 -30 -15 0 -11 -12 -15 -45 -15 -36 0 -47 4 -61 25
-9 14 -20 25 -25 25 -5 0 -9 -11 -9 -25 0 -18 -5 -25 -20 -25 -18 0 -20 7 -20
74 0 63 3 75 18 79 22 6 74 -3 90 -15z m306 16 c33 -12 17 -34 -24 -34 -35 0
-40 -3 -46 -27 -8 -32 6 -57 35 -61 17 -3 21 2 21 22 0 16 6 26 15 26 11 0 15
-11 15 -40 l0 -40 -43 0 c-47 0 -69 16 -82 58 -18 60 49 119 109 96z m310 0
c28 -11 18 -34 -14 -34 -39 0 -38 -13 3 -31 20 -9 33 -22 35 -37 5 -36 -15
-52 -65 -52 -37 0 -44 3 -41 18 2 13 11 16 36 14 40 -4 42 13 3 33 -41 21 -50
54 -21 77 24 19 38 22 64 12z m285 -3 c19 -12 4 -31 -25 -31 -33 0 -30 -15 6
-30 34 -14 46 -41 30 -70 -8 -15 -21 -20 -54 -20 -46 0 -57 5 -50 24 3 7 18
10 39 8 45 -5 45 12 0 34 -28 13 -35 22 -35 45 0 41 51 64 89 40z m795 3 c28
-11 18 -34 -14 -34 -38 0 -38 -14 0 -30 34 -14 49 -52 30 -75 -17 -21 -100
-21 -100 0 0 10 11 15 35 15 19 0 35 4 35 9 0 5 -16 18 -35 30 -41 24 -46 53
-13 75 24 17 38 19 62 10z m390 0 c29 -11 18 -34 -17 -34 -38 0 -57 -15 -57
-45 0 -26 18 -45 42 -45 13 0 18 8 18 25 0 16 6 25 15 25 11 0 15 -11 15 -40
l0 -40 -43 0 c-49 0 -71 17 -82 63 -14 56 54 112 109 91z m203 -15 c7 -7 13
-23 12 -38 0 -14 2 -35 6 -47 10 -32 -19 -54 -71 -54 l-44 0 0 74 c0 50 4 76
13 80 17 7 67 -2 84 -15z m288 -2 c19 -16 27 -33 28 -59 1 -50 -25 -78 -73
-78 -103 0 -101 155 2 159 9 1 29 -9 43 -22z m159 17 c30 -11 17 -33 -20 -36
-41 -3 -57 -28 -43 -65 6 -18 16 -23 44 -23 24 0 35 -4 35 -15 0 -21 -78 -20
-102 2 -24 22 -25 94 0 115 28 25 58 33 86 22z m298 -2 c26 -11 7 -30 -32 -34
-30 -3 -35 -7 -38 -31 -5 -38 15 -60 50 -55 16 3 29 -1 32 -8 7 -18 -4 -24
-46 -24 -48 0 -78 28 -78 73 0 62 56 101 112 79z m-4202 -62 l0 -60 30 0 c20
0 30 -5 30 -15 0 -11 -12 -15 -50 -15 l-50 0 0 75 c0 68 2 75 20 75 18 0 20
-7 20 -60z m292 3 c3 -50 6 -58 23 -58 17 0 20 8 23 58 3 49 6 57 22 57 18 0
20 -7 20 -59 0 -70 -15 -91 -64 -91 -45 0 -59 20 -64 91 -4 54 -3 59 16 59 18
0 21 -7 24 -57z m578 42 c0 -9 -9 -15 -25 -15 -24 0 -25 -3 -25 -60 0 -47 -3
-60 -15 -60 -12 0 -15 13 -15 60 0 57 -1 60 -25 60 -16 0 -25 6 -25 15 0 12
14 15 65 15 51 0 65 -3 65 -15z m760 0 c0 -10 -11 -15 -35 -15 -19 0 -35 -4
-35 -10 0 -5 14 -10 30 -10 23 0 30 -4 30 -20 0 -16 -7 -20 -30 -20 -20 0 -30
-5 -30 -15 0 -10 11 -15 35 -15 24 0 35 -5 35 -15 0 -12 -13 -15 -55 -15 l-55
0 0 75 0 75 55 0 c42 0 55 -3 55 -15z m240 7 c0 -5 6 -17 14 -27 14 -19 15
-19 27 8 7 15 20 27 31 27 23 0 23 -7 -7 -55 -14 -22 -25 -52 -25 -67 0 -21
-5 -28 -20 -28 -16 0 -20 7 -20 33 0 17 -11 51 -25 75 l-24 42 25 0 c13 0 24
-4 24 -8z m358 -4 c-3 -7 -14 -14 -26 -16 -20 -3 -22 -9 -22 -63 0 -52 -2 -59
-20 -59 -18 0 -20 7 -20 60 0 53 -2 60 -20 60 -11 0 -20 7 -20 15 0 12 14 15
66 15 48 0 65 -3 62 -12z m122 -3 c0 -10 -11 -15 -35 -15 -19 0 -35 -4 -35
-10 0 -5 14 -10 30 -10 23 0 30 -4 30 -20 0 -16 -7 -20 -30 -20 -20 0 -30 -5
-30 -15 0 -11 11 -15 40 -15 29 0 40 -4 40 -15 0 -12 -13 -15 -55 -15 l-55 0
0 75 0 75 50 0 c38 0 50 -4 50 -15z m95 -27 l16 -42 19 42 c13 30 25 42 40 42
14 0 20 -7 20 -22 0 -13 3 -47 6 -75 6 -49 5 -53 -15 -53 -18 0 -21 6 -22 48
l0 47 -16 -37 c-18 -44 -39 -49 -55 -13 -16 35 -28 31 -28 -10 0 -27 -4 -35
-17 -35 -16 0 -18 8 -15 62 4 79 7 88 31 88 13 0 24 -13 36 -42z m215 5 c0
-56 10 -83 30 -83 22 0 30 19 30 76 0 38 3 44 21 44 20 0 21 -4 17 -59 -5 -73
-19 -91 -69 -91 -48 0 -59 18 -59 94 0 43 3 56 15 56 11 0 15 -11 15 -37z
m290 -38 c0 -68 -2 -75 -20 -75 -18 0 -20 7 -20 75 0 68 2 75 20 75 18 0 20
-7 20 -75z m100 33 l30 -41 0 41 c0 35 3 42 20 42 18 0 20 -7 20 -75 0 -65 -2
-75 -17 -75 -10 0 -33 22 -50 48 l-33 47 0 -47 c0 -41 -3 -48 -20 -48 -18 0
-20 7 -20 75 0 68 2 75 20 75 12 0 32 -17 50 -42z m490 -18 l0 -60 35 0 c24 0
35 -5 35 -15 0 -12 -13 -15 -55 -15 l-55 0 0 75 c0 68 2 75 20 75 18 0 20 -7
20 -60z m440 33 l1 -28 24 28 c13 15 34 27 47 27 22 0 21 -1 -9 -32 l-32 -31
36 -44 c34 -41 34 -43 12 -43 -13 0 -34 13 -50 33 l-28 32 -1 -32 c0 -26 -4
-33 -20 -33 -18 0 -20 7 -20 75 0 68 2 75 20 75 15 0 20 -7 20 -27z m300 2 c0
-20 5 -25 25 -25 20 0 25 5 25 25 0 18 5 25 20 25 18 0 20 -7 20 -75 0 -68 -2
-75 -20 -75 -16 0 -20 7 -20 30 0 25 -4 30 -25 30 -21 0 -25 -5 -25 -30 0 -23
-4 -30 -20 -30 -18 0 -20 7 -20 75 0 68 2 75 20 75 15 0 20 -7 20 -25z m232
-45 c14 -36 27 -68 27 -72 2 -15 -37 -8 -43 7 -7 20 -56 19 -71 -1 -6 -9 -19
-15 -28 -13 -14 4 -12 14 15 77 25 61 34 73 52 70 15 -2 28 -20 48 -68z m88
-5 c0 -68 -2 -75 -20 -75 -18 0 -20 7 -20 75 0 68 2 75 20 75 18 0 20 -7 20
-75z m93 38 l27 -36 0 36 c0 30 4 37 20 37 18 0 20 -7 20 -75 0 -91 -14 -97
-62 -27 l-33 47 -3 -47 c-2 -34 -7 -48 -18 -48 -11 0 -14 16 -14 75 0 65 2 75
18 75 9 -1 29 -17 45 -37z"/>
<path d="M1680 1995 l0 -147 61 4 c54 4 66 9 90 36 54 61 48 180 -13 225 -17
12 -49 22 -83 25 l-55 4 0 -147z"/>
<path d="M4350 2080 l0 -60 50 0 c60 0 93 26 88 68 -4 33 -38 52 -95 52 l-43
0 0 -60z"/>
<path d="M4852 2030 l-30 -80 63 0 63 0 -30 77 c-16 43 -31 79 -32 81 -2 1
-17 -34 -34 -78z"/>
<path d="M1880 1554 c-13 -34 4 -66 32 -62 28 4 42 29 34 61 -9 37 -52 38 -66
1z"/>
<path d="M2210 1536 c0 -39 3 -46 20 -46 27 0 48 45 33 68 -5 9 -20 18 -32 20
-19 3 -21 -1 -21 -42z"/>
<path d="M2692 1568 c-29 -29 -3 -84 35 -76 25 5 40 52 23 72 -15 19 -41 21
-58 4z"/>
<path d="M2860 1561 c0 -14 5 -18 20 -14 11 3 20 12 20 19 0 8 -9 14 -20 14
-13 0 -20 -7 -20 -19z"/>
<path d="M3022 1546 c-10 -23 -9 -26 8 -26 21 0 23 4 11 33 -6 17 -8 16 -19
-7z"/>
<path d="M5150 1572 c0 -14 11 -21 26 -15 21 8 17 23 -6 23 -11 0 -20 -4 -20
-8z"/>
<path d="M5150 1505 c0 -9 9 -15 25 -15 16 0 25 6 25 15 0 9 -9 15 -25 15 -16
0 -25 -6 -25 -15z"/>
<path d="M5424 1553 c-9 -34 7 -58 37 -58 30 0 49 45 29 69 -21 26 -59 20 -66
-11z"/>
<path d="M6212 1550 c-7 -19 -6 -26 5 -28 21 -5 25 2 14 29 l-9 24 -10 -25z"/>
</g>
</svg>
